<svg width="416" height="80" viewBox="0 0 416 80" fill="none" xmlns="http://www.w3.org/2000/svg">
<mask id="mask0_1_155" style="mask-type:alpha" maskUnits="userSpaceOnUse" x="0" y="0" width="416" height="80">
<rect x="0.168701" y="0.0693359" width="415.065" height="79.3681" fill="#D9D9D9"/>
</mask>
<g mask="url(#mask0_1_155)">
<path d="M39.2545 33.7867C35.385 33.7867 33.2226 30.1189 33.2226 23.4896C33.2226 16.759 35.385 13.1916 39.2545 13.1916C43.124 13.1916 45.2855 16.8092 45.2855 23.4896C45.2787 30.2202 43.1172 33.7867 39.2545 33.7867ZM39.2545 10.425C31.364 10.425 26.9966 16.3046 26.9966 23.4896C26.9966 30.6738 31.3708 36.5542 39.2545 36.5542C47.145 36.5542 51.5123 30.6738 51.5123 23.4896C51.5123 16.2977 47.1382 10.425 39.2545 10.425ZM94.0566 10.425C90.3386 10.425 88.2774 12.0317 87.1243 14.0928H86.8222V10.9288H80.8916V36.0495H86.8222V19.8141C86.8222 16.0961 88.7319 13.9337 91.7938 13.9337C94.7561 13.9337 96.0675 15.8944 96.0675 18.8559V36.0351H101.998V18.8125C101.991 13.6384 99.2818 10.425 94.0566 10.425ZM115.452 10.425C109.975 10.425 105.853 12.738 105.853 17.6593C105.853 21.8318 108.714 24.0878 111.935 24.8946L116.958 26.1481C119.624 26.8042 120.827 27.7557 120.827 29.867C120.827 32.4319 119.019 33.888 115.856 33.888C112.44 33.888 110.682 32.2302 110.127 28.0578L104.801 29.564C105.104 33.888 109.125 36.5465 115.2 36.5465C121.981 36.5465 125.648 33.3834 125.648 28.3607C125.648 23.6402 122.384 21.6803 118.969 20.8234L114.148 19.6192C111.734 19.0141 110.682 17.9121 110.682 16.3046C110.682 14.2945 112.39 13.0912 114.955 13.0912C117.967 13.0912 119.826 14.7481 120.079 17.9121L125.101 16.4058C124.495 12.8818 121.029 10.425 115.452 10.425ZM140.371 33.7867C136.501 33.7867 134.339 30.1189 134.339 23.4896C134.339 16.759 136.501 13.1916 140.371 13.1916C144.24 13.1916 146.402 16.8092 146.402 23.4896C146.395 30.2202 144.24 33.7867 140.371 33.7867ZM140.371 10.425C132.48 10.425 128.113 16.3046 128.113 23.4896C128.113 30.6738 132.487 36.5542 140.371 36.5542C148.261 36.5542 152.629 30.6738 152.629 23.4896C152.629 16.2977 148.255 10.425 140.371 10.425ZM169.303 10.425C165.585 10.425 163.524 12.0317 162.371 14.0928H162.068V10.9288H156.138V36.0495H162.068V19.8141C162.068 16.0961 163.979 13.9337 167.04 13.9337C170.003 13.9337 171.314 15.8944 171.314 18.8559V36.0351H177.245V18.8125C177.245 13.6384 174.527 10.425 169.303 10.425ZM257.363 33.7867C253.492 33.7867 251.332 30.1189 251.332 23.4896C251.332 16.759 253.492 13.1916 257.363 13.1916C261.232 13.1916 263.393 16.8092 263.393 23.4896C263.393 30.2202 261.232 33.7867 257.363 33.7867ZM257.363 10.425C249.472 10.425 245.105 16.3046 245.105 23.4896C245.105 30.6738 249.479 36.5542 257.363 36.5542C265.253 36.5542 269.62 30.6738 269.62 23.4896C269.62 16.2977 265.253 10.425 257.363 10.425ZM312.165 10.425C308.447 10.425 306.386 12.0317 305.232 14.0928H304.93V10.9288H299V36.0495H304.93V19.8141C304.93 16.0961 306.839 13.9337 309.902 13.9337C312.863 13.9337 314.175 15.8944 314.175 18.8559V36.0351H320.105V18.8125C320.105 13.6384 317.39 10.425 312.165 10.425ZM333.568 10.425C328.09 10.425 323.968 12.738 323.968 17.6593C323.968 21.8318 326.83 24.0878 330.05 24.8946L335.074 26.1481C337.732 26.8042 338.942 27.7557 338.942 29.867C338.942 32.4319 337.135 33.888 333.971 33.888C330.554 33.888 328.796 32.2302 328.241 28.0578L322.916 29.564C323.219 33.888 327.239 36.5465 333.314 36.5465C340.096 36.5465 343.764 33.3834 343.764 28.3607C343.764 23.6402 340.499 21.6803 337.084 20.8234L332.264 19.6192C329.849 19.0141 328.796 17.9121 328.796 16.3046C328.796 14.2945 330.506 13.0912 333.07 13.0912C336.082 13.0912 337.941 14.7481 338.193 17.9121L343.216 16.4058C342.61 12.8818 339.145 10.425 333.568 10.425ZM358.479 33.7867C354.609 33.7867 352.446 30.1189 352.446 23.4896C352.446 16.759 354.609 13.1916 358.479 13.1916C362.349 13.1916 364.51 16.8092 364.51 23.4896C364.51 30.2202 362.349 33.7867 358.479 33.7867ZM358.479 10.425C350.588 10.425 346.221 16.3046 346.221 23.4896C346.221 30.6738 350.595 36.5542 358.479 36.5542C366.369 36.5542 370.737 30.6738 370.737 23.4896C370.737 16.2977 366.369 10.425 358.479 10.425ZM387.411 10.425C383.692 10.425 381.632 12.0317 380.48 14.0928H380.177V10.9288H374.246V36.0495H380.177V19.8141C380.177 16.0961 382.086 13.9337 385.148 13.9337C388.111 13.9337 389.422 15.8944 389.422 18.8559V36.0351H395.352V18.8125C395.352 13.6384 392.642 10.425 387.411 10.425ZM23.4803 0.876695H17.2467V26.8476C17.2467 31.0703 15.64 33.5782 11.8207 33.5782C8.05155 33.5782 6.39465 30.9188 6.39465 26.343V21.5221L0.168701 23.0854V25.2478C0.168701 31.8269 3.4323 36.8563 11.8275 36.8563C20.2158 36.8563 23.4803 31.8337 23.4803 25.2478V0.876695ZM60.9517 0.876695H55.021V36.0419H60.9517V19.8141C60.9517 16.0961 62.8613 13.9337 65.9241 13.9337C68.8856 13.9337 70.1978 15.8944 70.1978 18.8559V36.0351H76.1208V18.8125C76.1208 13.6384 73.4044 10.425 68.1801 10.425C64.4612 10.425 62.4001 12.0317 61.2478 14.0928H60.9449V0.876695M241.588 0.876695H235.362V26.8476C235.362 31.0703 233.756 33.5782 229.935 33.5782C226.167 33.5782 224.51 30.9188 224.51 26.343V21.5221L218.284 23.0785V25.2401C218.284 31.8192 221.547 36.8495 229.944 36.8495C238.332 36.8495 241.595 31.8269 241.595 25.2401V0.876695M279.06 0.876695H273.129V36.0419H279.06V19.8141C279.06 16.0961 280.969 13.9337 284.031 13.9337C286.995 13.9337 288.306 15.8944 288.306 18.8559V36.0351H294.237V18.8125C294.237 13.6384 291.526 10.425 286.296 10.425C282.576 10.425 280.515 12.0317 279.363 14.0928H279.06V0.876695ZM196.78 33.1817C191.96 33.1817 188.991 29.2611 188.991 25.0895C188.991 22.4735 190.143 20.066 192.054 18.7112L203.41 31.1205C201.306 32.3741 198.943 33.1817 196.78 33.1817ZM207.834 26.9983L197.991 16.1463C199.75 15.4399 201.457 15.1948 202.863 15.1948C206.935 15.1948 209.442 17.5589 209.442 21.6233C209.442 23.4317 208.938 25.2912 207.834 26.9983ZM196.629 14.6902L194.467 12.2767C192.558 10.1654 192.003 8.86082 192.003 7.30433C192.003 4.39304 193.862 2.73529 196.773 2.73529C199.736 2.73529 201.494 4.44325 201.494 7.55623C201.508 10.425 200.094 13.1337 196.629 14.6902ZM196.932 0.0690918C190 0.0690918 186.583 3.93946 186.583 8.75955C186.583 11.3687 187.687 13.9847 190.606 17.1479L190.655 17.2492C185.734 19.6124 183.47 23.4317 183.47 27.3446C183.47 32.5187 187.442 36.8418 193.566 36.8418C197.083 36.8418 201.205 35.3866 204.923 32.7706L207.936 36.0351H215.827V35.79L209.398 28.7062C212.114 25.4928 213.671 21.9756 213.671 18.9061C213.671 15.0868 211.105 12.5286 207.092 12.5286C204.98 12.5286 202.618 13.1337 201.061 13.732L200.96 13.5303C204.779 11.4691 206.387 9.55949 206.387 6.90095C206.379 3.08845 202.963 0.0690918 196.932 0.0690918ZM109.478 53.8126H105.205L98.7771 74.1124L92.2984 53.8126H87.874L96.0607 78.9334H101.285L109.478 53.8126ZM161.968 53.8126H157.795V78.9334H161.968V53.8126ZM187.585 53.8126H183.312L176.884 74.1124L170.406 53.8126H165.989L174.175 78.9334H179.399L187.585 53.8126ZM327.284 53.8126H323.111V78.9334H327.284V53.8126ZM363.149 53.8126H358.977V78.9334H363.149V53.8126ZM24.0283 53.3079C20.4609 53.3079 17.9964 55.0159 16.9948 57.6821V53.8126H12.8223V78.9334H16.9948V62.4026C16.9948 58.8854 18.7529 56.5222 22.471 56.5222C26.1388 56.5222 27.8978 58.8854 27.8978 62.4026V78.9334H32.0703V61.5516C32.0703 56.8251 29.108 53.3079 24.0283 53.3079ZM49.2997 53.3079C45.7323 53.3079 43.2678 55.0159 42.2662 57.6821V53.8126H38.0946V78.9334H42.2662V62.4026C42.2662 58.8854 44.0252 56.5222 47.7432 56.5222C51.4111 56.5222 53.1692 58.8854 53.1692 62.4026V78.9334H57.3417V61.5516C57.3349 56.8251 54.3726 53.3079 49.2997 53.3079ZM74.1108 75.8706C69.8881 75.8706 66.9759 72.858 66.9759 66.3725C66.9759 59.8445 69.837 56.8753 74.1108 56.8753C78.3334 56.8753 81.2447 59.8368 81.2447 66.3725C81.2447 72.8512 78.4339 75.8706 74.1108 75.8706ZM74.3124 53.3079C66.7742 53.3079 62.6094 58.8352 62.6094 66.6755C62.6094 74.6094 66.8823 79.438 73.9159 79.438C81.5043 79.438 85.6257 73.9107 85.6257 66.0704C85.6189 58.1289 81.3962 53.3079 74.3124 53.3079ZM122.233 76.4186C119.372 76.4186 117.412 74.8111 117.412 72.0011C117.412 69.637 118.766 68.4847 121.635 67.7784L124.698 67.0219C126.608 66.5674 127.659 66.2653 128.063 65.9189V70.7901C128.063 74.509 125.498 76.4186 122.233 76.4186ZM123.545 53.3079C117.463 53.3079 113.694 56.9766 113.398 61.3499L117.268 62.1575C117.469 58.9433 119.429 56.529 123.249 56.529C126.463 56.529 128.07 58.288 128.07 61.1993V61.3499C128.07 62.5532 127.717 63.0579 126.614 63.3608L119.379 65.1692C115.51 66.1785 113.247 68.7366 113.247 72.3032C113.247 76.8288 116.612 79.438 121.087 79.438C124.856 79.438 127.371 77.6288 128.07 75.1141C128.171 77.4773 128.372 78.4789 128.574 78.9334H132.848C132.393 77.6288 132.192 75.8204 132.192 73.709V60.9465C132.185 56.2269 128.913 53.3079 123.545 53.3079ZM194.316 63.6561C194.871 59.2386 197.127 56.7238 201.096 56.7238C204.867 56.7238 207.078 58.9867 207.18 63.6561H194.316ZM201.096 53.3079C194.467 53.3079 189.841 57.9782 189.841 66.5751C189.841 74.8111 194.115 79.438 201.096 79.438C206.826 79.438 210.443 76.1736 211.344 71.2513L207.524 70.2497C206.87 74.4724 204.614 75.9285 201.494 75.9285C196.521 75.9285 194.309 72.2606 194.157 66.6321H211.387V65.2271C211.402 56.4209 206.625 53.3079 201.096 53.3079ZM273.583 63.6561C274.138 59.2386 276.393 56.7238 280.364 56.7238C284.133 56.7238 286.344 58.9867 286.447 63.6561H273.583ZM280.364 53.3079C273.735 53.3079 269.109 57.9782 269.109 66.5751C269.109 74.8111 273.381 79.438 280.364 79.438C286.093 79.438 289.71 76.1736 290.612 71.2513L286.793 70.2497C286.136 74.4724 283.881 75.9285 280.76 75.9285C275.789 75.9285 273.576 72.2606 273.425 66.6321H290.654V65.2271C290.67 56.4209 285.891 53.3079 280.364 53.3079ZM344.11 53.3079C337.228 53.3079 332.551 58.1289 332.551 66.6253C332.551 74.9626 337.12 79.438 343.908 79.438C350.04 79.438 353.506 75.6689 354.206 70.4948L350.235 69.5366C349.529 74.2562 347.526 75.8706 344.204 75.8706C339.382 75.8706 336.918 72.3542 336.918 66.3223C336.918 60.0462 339.527 56.8753 344.001 56.8753C347.165 56.8753 349.479 58.4318 350.228 62.9072L354.198 61.9558C353.506 56.8251 350.04 53.3079 344.11 53.3079ZM380.378 53.3079C376.811 53.3079 374.348 55.0159 373.346 57.6821V53.8126H369.173V78.9334H373.346V62.4026C373.346 58.8854 375.104 56.5222 378.821 56.5222C382.49 56.5222 384.248 58.8854 384.248 62.4026V78.9334H388.421V61.5516C388.421 56.8251 385.451 53.3079 380.378 53.3079ZM398.162 63.6561C398.717 59.2386 400.973 56.7238 404.944 56.7238C408.713 56.7238 410.924 58.9867 411.026 63.6561H398.162ZM404.944 53.3079C398.314 53.3079 393.688 57.9782 393.688 66.5751C393.688 74.8111 397.96 79.438 404.944 79.438C410.672 79.438 414.289 76.1736 415.192 71.2513L411.372 70.2497C410.716 74.4724 408.46 75.9285 405.339 75.9285C400.369 75.9285 398.155 72.2606 398.005 66.6321H415.233V65.2271C415.241 56.4209 410.47 53.3079 404.944 53.3079ZM145.696 46.7799L141.524 47.7815V53.8126H136.703V57.0268H141.524V72.3968C141.524 76.5191 143.484 79.4303 148.406 79.4303C150.87 79.4303 152.974 78.6236 153.782 77.8739L152.629 74.8622C152.629 74.8622 151.122 75.914 148.961 75.914C146.698 75.914 145.696 74.5592 145.696 71.7415V57.0268H153.133V53.8126H145.696V46.7799ZM6.30104 43.7597H1.92688V78.9257H6.30104V43.7597ZM263.344 43.7597H256.714L246.315 72.0947L235.866 43.7597H228.933V78.9257H233.307V48.6385L244.515 78.9334H247.878L258.984 48.5882V78.9334H263.351V43.7597M306.134 75.8706C302.011 75.8706 299.252 72.9091 299.252 66.3725C299.252 59.7934 302.018 56.8753 306.134 56.8753C310.256 56.8753 313.016 59.7866 313.016 66.3725C313.016 72.9014 310.256 75.8706 306.134 75.8706ZM317.087 43.7597H312.914V58.6335C312.006 55.866 309.801 53.3079 305.428 53.3079C299.8 53.3079 294.877 57.7331 294.877 66.524C294.877 75.417 299.8 79.438 305.074 79.438C309.044 79.438 311.956 77.1241 312.914 73.8597V75.7702C312.914 76.9224 313.016 78.1836 313.166 78.9334H317.39C317.188 77.73 317.087 75.9719 317.087 73.709V43.7597ZM159.906 43.0108C158.25 43.0108 156.945 44.3154 156.945 45.9723C156.945 47.63 158.25 48.8835 159.906 48.8835C161.564 48.8835 162.818 47.63 162.818 45.9723C162.825 44.3154 161.564 43.0108 159.906 43.0108ZM325.223 43.0108C323.566 43.0108 322.261 44.3154 322.261 45.9723C322.261 47.63 323.566 48.8835 325.223 48.8835C326.88 48.8835 328.135 47.63 328.135 45.9723C328.141 44.3154 326.88 43.0108 325.223 43.0108ZM361.088 43.0108C359.43 43.0108 358.125 44.3154 358.125 45.9723C358.125 47.63 359.43 48.8835 361.088 48.8835C362.745 48.8835 363.999 47.63 363.999 45.9723C364.005 44.3154 362.745 43.0108 361.088 43.0108Z" fill="#EB1700"/>
</g>
</svg>
